<?xml version="1.0" encoding="utf-8"?>
<!-- Generator: Adobe Illustrator 24.3.0, SVG Export Plug-In . SVG Version: 6.00 Build 0)  -->
<svg version="1.0" id="Layer_1" xmlns="http://www.w3.org/2000/svg" xmlns:xlink="http://www.w3.org/1999/xlink" x="0px" y="0px"
	 viewBox="0 0 1280 720" style="enable-background:new 0 0 1280 720;" xml:space="preserve">
<style type="text/css">
	.st0{fill-rule:evenodd;clip-rule:evenodd;fill:#EC7224;}
	.st1{fill-rule:evenodd;clip-rule:evenodd;fill:#0065AC;}
	.st2{fill:none;}
</style>
<g>
	<polygon class="st0" points="384.4,257 384.4,466.4 393.7,466.4 393.7,257 	"/>
	<path class="st1" d="M1082.9,311.3c0.8,2.2,2.3,4,4.4,5.2c2.1,1.3,4.9,1.9,8.5,1.9c3,0,5.8-0.5,8.2-1.4c2.4-0.9,5-2.3,7.6-4
		c2.6-1.8,4.6-3.4,5.8-4.8c1.7-2.1,3.2-5.1,4.5-9s2-7.9,2-11.8c0-2.1-0.3-4-0.8-5.8s-1.3-3.3-2.4-4.5c-1.1-1.3-2.7-2.3-4.9-3.1
		c-2.1-0.8-4.5-1.2-7.1-1.2c-3.1,0-6,0.6-8.8,1.8c-2.8,1.2-5.3,2.7-7.6,4.5c-2.3,1.8-3.9,3.3-4.8,4.4c-1.5,1.8-2.8,4.7-4.1,8.7
		c-1.3,4-1.9,7.9-1.9,11.7C1081.7,306.6,1082.1,309.1,1082.9,311.3L1082.9,311.3L1082.9,311.3z M1094.4,289.8
		c1.3-5,2.9-8.5,4.6-10.3s3.8-2.7,6.2-2.7c2.4,0,4.3,0.8,5.7,2.5c1.5,1.6,2.2,4.3,2.2,8c0,4.3-0.6,8.9-1.9,13.7
		c-0.9,3.3-1.8,5.8-2.9,7.7c-1,1.9-2.2,3.2-3.4,4c-1.3,0.8-2.7,1.2-4.5,1.2c-2.6,0-4.5-0.8-6-2.4c-1.4-1.6-2.1-4.3-2.1-8
		C1092.4,299.5,1093.1,294.9,1094.4,289.8L1094.4,289.8L1094.4,289.8z M1136,279.2c2.2,0,4.1,0,5.9,0l-6.5,33.8
		c-1.7,9.3-3.1,15.3-4.2,18.2c-0.5,1.4-1.2,2.4-1.9,3c-0.7,0.6-1.5,0.8-2.4,0.8s-1.7-0.3-2.5-0.9c-0.7-0.6-1.4-1.7-2.1-3.1l-1.4,0.3
		c-0.3,1.6-0.7,3.1-1.1,4.5s-1,3.2-1.9,5.4c1.2,0.5,2.4,0.8,3.4,0.8c1.4,0,2.9-0.4,4.4-1.2c2.9-1.5,5.8-4,8.7-7.3
		c2.9-3.3,5.1-7.1,6.8-11.5c1.7-4.3,3.8-11.4,6.2-21.1l5-21.8c1,0,2.5,0,4.5,0c3.2,0,5.6,0,7,0c0.3-1.5,0.8-3,1.4-4.7l-0.4-0.7
		c-1,0.2-2.4,0.3-4.4,0.4c-3.2,0.2-5.3,0.3-6.1,0.3h-1c0.7-4,1.6-8,2.7-12c0.4-1.5,0.8-2.6,1.2-3.3c0.4-0.7,1-1.3,1.7-1.7
		c0.7-0.4,1.4-0.6,2.2-0.6c1,0,2.1,0.4,3.3,1.2c1.2,0.8,2.4,2.1,3.7,4l1.4-0.3c0.5-3.6,1.4-7.5,2.6-11.6c-1.3-0.5-2.5-0.7-3.7-0.7
		c-1.8,0-3.3,0.2-4.3,0.7c-1,0.4-3.1,1.8-6.3,4.1c-3.2,2.3-6.1,4.7-8.8,7.1c-1.7,1.6-2.9,3.2-3.8,4.7c-0.5,1-1.1,2.7-1.6,5.3
		c-0.2,1.2-0.4,1.9-0.6,2.4c-1.3,0.6-2.9,1.1-4.9,1.7s-3.5,1-4.4,1.4l-0.4,2.3C1134,279.2,1134.9,279.2,1136,279.2L1136,279.2
		L1136,279.2L1136,279.2z"/>
	<path class="st1" d="M508,381.2h-8.2c-0.1,5.5-0.5,9.1-1,10.6c-0.4,1.2-1,1.9-1.8,2.1c-2.1,0.7-7.2,1.1-15.3,1.1
		c-2.8,0-8.2-0.2-16.1-0.7v-13c0-16.2,0.4-27.4,1.1-33.6c1.7-0.1,5-0.3,9.8-0.4c4.8-0.2,7.8-0.3,8.8-0.3c5.5,0,10.3,0.4,14.3,1.1
		c4.1,0.7,6.7,1.4,7.8,2.2c0.4,0.2,0.6,0.5,0.8,0.9c0.2,0.6,0.4,2.2,0.6,4.9c0.3,5.2,0.5,8.5,0.5,10h7.6c0.1-4.1,0.3-8.9,0.8-14.4
		s1.1-10,1.8-13.6l-0.8-1.3c-5.6-0.6-11.6-0.9-17.9-0.9l-45,0.9l-33.2-0.7v7.8c6,0.4,9.7,0.7,11.1,1c1.3,0.3,2.2,0.6,2.6,1
		c0.4,0.3,0.7,0.9,0.9,1.5c0.6,2,0.9,5.4,1,10.2c0.6,16.6,0.9,25.4,0.9,26.2v38.8c0,3.3-0.2,8.8-0.5,16.3
		c-0.3,7.6-0.6,12.1-0.8,13.5c-0.3,2.5-0.8,4.1-1.3,4.9c-0.4,0.5-0.8,0.8-1.4,1c-1.1,0.4-5.3,0.7-12.5,0.8v7.7
		c11.5-0.4,19.9-0.7,25.2-0.7l36.8,0.7v-7.4c-8.7-0.6-13.6-1.1-14.7-1.5s-1.9-0.9-2.3-1.6c-0.6-1-1.1-4.5-1.5-10.4
		c-0.4-6-0.5-16.3-0.5-31.1v-10.4c3.5-0.1,6-0.1,7.5-0.1c9.9,0,17.2,0.4,21.8,1.2c1.8,0.4,2.9,1,3.4,1.8c0.9,1.6,1.4,6.3,1.6,14.1
		h8.2C508,405.3,508,391.7,508,381.2L508,381.2L508,381.2L508,381.2z M560.1,466.3c4,0,11.2,0.1,21.5,0.4c13.5,0.3,20.9,0.5,22,0.5
		c8,0,13.9-0.2,17.7-0.5c1.8-0.2,3.6-0.5,5.4-1.1c0.1-1.2,0.3-4.7,0.8-10.7l2.3-18.9c0-0.3,0.1-1.3,0.3-3.1h-7.7
		c-1.2,6.1-2.4,11.6-3.7,16.4c-0.6,1.9-1.1,3-1.6,3.5c-0.5,0.4-2,0.8-4.6,1.2c-7.1,1.1-15.3,1.6-24.8,1.6c-3.1,0-9-0.2-17.6-0.7
		c-0.1-1.9-0.1-7.2-0.1-16s-0.1-17.6-0.1-26.5c-0.1-16.9-0.1-25.9-0.1-27c0-10.5,0.1-19.2,0.4-26c0.3-6.9,0.6-10.7,0.9-11.6
		c0.3-0.8,0.8-1.5,1.5-1.8c1.6-0.8,5.9-1.4,12.9-1.7v-8.2c-10.2,0.5-20.9,0.7-32.3,0.7c-10.2,0-19.2-0.2-27.1-0.7v8.2
		c8.1,0.3,12.9,0.9,14.4,1.9c0.7,0.4,1.2,0.9,1.4,1.7c0.6,1.7,1,8.4,1.2,20.1c0.1,4.6,0.2,16.8,0.2,36.5c0,13.4-0.1,24.9-0.4,34.5
		c-0.3,9.6-0.5,15.1-0.9,16.7c-0.1,0.4-0.2,0.7-0.5,1c-0.4,0.5-1.2,1.1-2.5,1.9c-2.9,1.8-5.2,3-6.8,3.7v4.8
		C544.7,466.6,554,466.3,560.1,466.3L560.1,466.3L560.1,466.3L560.1,466.3z M640.8,440.4c5.7,9.9,13.6,17.4,23.7,22.5
		c10.1,5.1,22.1,7.6,36.1,7.6c13,0,24.5-2.1,34.6-6.3c7.4-3.1,13.9-7.6,19.7-13.4s10.1-12.4,13.1-19.9c4-10,6.1-20.9,6.1-32.7
		c0-6.9-0.7-13.3-2.1-19c-1.4-5.7-3.5-11-6.2-15.8s-6.7-9.5-12-14.1s-11.3-8.1-18.2-10.5c-9.2-3.2-19.5-4.8-30.9-4.8
		s-21.9,1.7-31.6,5c-7.5,2.6-14.5,6.9-20.9,12.8s-11.4,13.1-14.8,21.6c-3.5,8.5-5.2,18.4-5.2,29.9
		C632.2,418.1,635,430.4,640.8,440.4L640.8,440.4L640.8,440.4z M665.3,370c2.9-8.4,7.6-14.7,13.9-19c6.4-4.3,14.1-6.4,23.3-6.4
		c8,0,14.4,1.3,19.2,4s9,6.6,12.6,11.7c3.5,5.1,6.3,11.3,8.2,18.5s2.9,15.3,2.9,24c0,12.8-1.8,23.6-5.3,32.5s-8.4,15.3-14.6,19
		c-6.2,3.7-13.2,5.6-21.1,5.6c-8.5,0-15.8-2-22.1-5.9c-6.2-3.9-11.3-10.7-15.3-20.2s-6-21.6-6-36.1
		C660.9,387.6,662.4,378.3,665.3,370L665.3,370L665.3,370z M787.7,345.9c0.6,0.4,1.1,0.9,1.4,1.6c0.6,1.6,1,6.2,1.1,14l0.5,19.7V416
		l-0.8,27.3c-0.2,4.9-0.5,8.6-0.9,11c-0.2,1.3-0.5,2.2-0.8,2.6s-0.9,0.7-1.6,0.9c-1.3,0.4-5.5,0.8-12.6,1v8.2
		c8.3-0.4,17.3-0.7,27-0.7c10.9,0,21.7,0.2,32.3,0.7v-8.2c-6-0.1-9.6-0.3-10.9-0.6c-1.2-0.2-2.2-0.6-2.7-1c-0.6-0.4-1-0.9-1.2-1.4
		c-0.5-1.1-0.8-3.3-1-6.8c-0.1-1.7-0.3-9-0.6-21.9c-0.2-10.5-0.3-20.4-0.3-29.7c0-5.9,0.2-17.7,0.6-35.3c0.2-7.9,0.4-12.9,0.6-15.2
		c2.9-0.5,5.9-0.8,8.9-0.8c6.7,0,11.4,0.5,14,1.4c4.1,1.5,7.5,4.1,10.2,8c2.7,3.8,4.1,8.6,4.1,14.3c0,5.7-1.3,10.8-3.9,15.4
		c-2.6,4.6-5.8,7.8-9.7,9.5c-3.8,1.8-9.5,2.5-17,2.3l-1,3.1c1.9,1.4,3.8,3.4,5.8,6.2c4,5.4,8.9,12.9,14.6,22.3l20,33
		c1.2,2.2,1.9,4,2.2,5.3c4.9-0.3,9.9-0.4,14.9-0.4c4.3,0,11.2,0.1,20.9,0.4v-8.2c-2.9-0.1-4.9-0.3-5.9-0.7c-1-0.4-2-1.2-3.1-2.3
		c-1.1-1.1-3.9-4.8-8.6-11c-0.3-0.4-2.4-3.5-6.3-9.3l-14.5-21.6c-0.4-0.6-0.7-1.1-1.1-1.8c-0.3-0.6-1.5-2.4-3.5-5.3
		s-3.8-5.8-5.3-8.5c9.7-3.6,17-8.5,21.7-14.7s7-13,7-20.6c0-6.4-1.7-11.8-5.1-16.2c-3.4-4.4-7.6-7.3-12.5-8.8
		c-4.9-1.4-12.2-2.1-22-2.1c-5.1,0-11.5,0.2-19.2,0.5c-4.7,0.3-10.3,0.4-16.8,0.4c-7.7,0-13.6-0.1-17.8-0.2
		c-8.5-0.3-13.5-0.5-15-0.5v7.6C781.7,344.6,786.3,345.2,787.7,345.9L787.7,345.9L787.7,345.9L787.7,345.9z M937,336.9
		c-10.2,0-19.2-0.2-27.1-0.7v8.2c6.8,0.3,10.8,0.5,11.9,0.8c1.1,0.3,1.9,0.6,2.2,1.1c0.4,0.4,0.7,1.1,0.9,1.9c0.4,2,0.8,7,1.1,14.9
		c0.1,3.6,0.2,11.6,0.2,24v39.1c0,6.4-0.3,13.3-0.8,20.8c-0.3,5.1-0.6,8.1-0.7,8.8c-0.1,0.6-0.4,1.1-0.9,1.5s-1.4,0.8-2.7,1
		c-1,0.2-4.7,0.4-11.2,0.6v8.2c7.9-0.4,16.8-0.7,26.9-0.7c11.6,0,22.4,0.2,32.6,0.7v-8.2c-6.2-0.1-9.9-0.3-11.2-0.6
		c-1.3-0.3-2.2-0.6-2.8-1.1s-1-1.1-1.3-2c-0.6-1.9-0.9-6.1-0.9-12.5l-0.3-17.1v-37.7c0-1.2,0.1-9.5,0.4-24.8
		c0.1-4.5,0.2-7.6,0.3-9.2c0.2-3,0.5-5,0.9-6.1c0.2-0.6,0.5-1.1,1-1.5s1.4-0.8,2.5-1c1.2-0.3,5-0.5,11.3-0.7v-8.2
		C959.2,336.7,948.4,336.9,937,336.9L937,336.9L937,336.9L937,336.9z M1009.4,466.5l27.8,0.7c12.6,0,23.3-1.4,32.3-4.2
		c8.9-2.8,17.2-7.3,24.8-13.6c7.6-6.3,13.6-14.1,18-23.5s6.5-20,6.5-31.9c0-9.4-1.5-18-4.4-25.8c-1.7-4.7-4.3-9-7.7-13.1
		c-3.4-4.1-7.6-7.6-12.5-10.5c-4.9-3-10.7-5.1-17.3-6.5c-6.6-1.3-15.5-2-26.5-2c-4.8,0-11.2,0.1-19.2,0.3c-11,0.4-18.5,0.5-22.5,0.5
		l-33.9-0.7v7.5c6.8,0.9,10.7,1.4,11.7,1.7c1.1,0.3,1.8,0.6,2.3,1.1c0.3,0.3,0.6,0.7,0.7,1.3c0.6,2.4,1,8.1,1.2,16.9
		c0.3,15.9,0.5,28,0.5,36.2v15.4c0,18.8-0.4,32.4-1.1,40.7c-2,1.4-4.1,2.8-6.5,4.1c-1.2,0.7-2.1,1.2-2.6,1.5v4.5L1009.4,466.5
		L1009.4,466.5L1009.4,466.5z M1017.5,418.9v-21.5c0-24.5,0.3-41.1,1-50c5.8-0.8,11.1-1.3,15.9-1.3c12.8,0,22.3,1.1,28.6,3.4
		c6.3,2.2,11.5,5.9,15.6,10.9s7.1,10.8,8.9,17.4s2.7,13.5,2.7,20.6c0,7.8-0.9,15.1-2.7,21.8c-1.8,6.7-4.4,12.5-7.6,17.4
		c-3.3,4.9-6.7,8.5-10.2,11c-3.6,2.5-7.7,4.4-12.4,5.7c-6.4,1.7-13.8,2.6-22.1,2.6c-5.3,0-10.9-0.5-16.7-1.5
		C1017.8,449.7,1017.5,437.5,1017.5,418.9L1017.5,418.9L1017.5,418.9L1017.5,418.9z M1123.6,466.5l21.6,0.7v-7.7
		c-7.4-0.2-11.9-0.8-13.4-1.7c-1-0.6-1.5-1.7-1.5-3.2c0-2.1,1.6-7.5,4.7-16l4.1-11.2h48.3l8,20.5c1.4,3.5,2.2,6.1,2.2,7.6
		c0,1.2-0.5,2.1-1.4,2.7c-1,0.5-5.2,0.9-12.8,1.3v7.7l32.8-0.7l26,0.7v-7.7c-1.8-0.2-3.2-0.3-4.1-0.5c-2.9-0.2-4.8-0.4-5.5-0.7
		c-0.7-0.3-1.4-0.6-1.9-1.1c-0.6-0.5-1.2-1.3-1.8-2.4l-3.7-8.6l-5.8-12.8l-41.8-97.7h-13.3l-8.2,21.2l-24.4,60.3
		c-4.6,11.4-7.7,19.1-9.4,22.9c-3.6,8.2-5.7,13-6.4,14.3c-0.7,1.3-1.4,2.2-2.1,2.8c-0.7,0.6-1.5,1-2.5,1.3s-4,0.6-9,1v7.7
		L1123.6,466.5L1123.6,466.5L1123.6,466.5z M1162.7,368.2l20,48.4c-5.7,0.2-12.1,0.3-19.3,0.3c-7.4,0-14.1-0.1-20-0.3L1162.7,368.2
		L1162.7,368.2L1162.7,368.2z"/>
	<path class="st1" d="M427.7,260.7c0.5,0.4,0.9,0.7,1,1c0.2,0.5,0.4,1.4,0.5,2.5c0.1,2.9,0.2,6.2,0.2,9.9v10v7.5
		c0,4.1,0.1,6.7,0.2,7.6c0.2,1.5,0.7,3.1,1.5,4.7s2.1,3.1,3.6,4.4c1.6,1.3,3.7,2.4,6.2,3.2c3.5,1.1,7.2,1.6,11.1,1.6
		c3.4,0,6.4-0.4,9-1.1s4.8-1.8,6.7-3.3c1.9-1.4,3.3-3,4.4-4.8c1-1.8,1.7-3.9,2.1-6.4c0.3-2.5,0.5-4.9,0.5-7.3V281
		c0-2.7,0.1-6.4,0.3-11.1c0.2-4.7,0.4-7.4,0.6-7.9c0.2-0.6,0.5-1,0.8-1.2c0.6-0.4,2.2-0.6,4.6-0.6V257l-8.7,0.2c-0.5,0-0.8,0-1.1,0
		c-0.9,0-3.7-0.1-8.4-0.3v3.2c2.9,0.1,4.8,0.3,5.6,0.8c0.4,0.2,0.7,0.5,0.9,0.9c0.3,0.7,0.5,2.7,0.5,6c0,1.5,0,5.7,0,12.6v8
		c0,5.6-0.5,9.4-1.4,11.3c-0.9,2-2.5,3.6-4.6,4.9c-2.2,1.2-5.1,1.9-8.7,1.9c-3.2,0-5.8-0.5-7.8-1.4c-2.1-0.9-3.6-2.1-4.6-3.7
		c-1-1.5-1.6-3.5-1.8-5.9c-0.1-1.1-0.2-4.1-0.2-8.9V282v-9.1c0-5.5,0.2-9.1,0.5-10.7c0.1-0.7,0.4-1.1,0.8-1.4
		c0.8-0.5,2.6-0.7,5.4-0.7v-3.2h-1.5l-5.3,0.1l-5.3,0.1l-12.8-0.3v3.2L427.7,260.7L427.7,260.7L427.7,260.7z M497.5,311.8
		c4.4-0.2,7.8-0.3,10.4-0.3c0.7,0,3.5,0.1,8.5,0.1v-3.2c-0.4,0-0.6,0-0.8,0c-0.8,0-2-0.1-3.7-0.3c-0.6-0.1-1.1-0.2-1.3-0.4
		c-0.2-0.2-0.4-0.5-0.5-0.8c-0.2-0.7-0.4-2.5-0.5-5.5c-0.2-4.4-0.3-8.6-0.3-12.7v-19.5c15.5,18.9,27.5,33.1,35.9,42.5
		c2.3,0.3,4.5,0.6,6.7,1l0.5-0.4c-0.4-3.7-0.5-14.3-0.5-31.7c0-2.2,0.1-5.7,0.2-10.3c0.1-4.7,0.4-7.7,0.8-9c0.1-0.3,0.2-0.5,0.4-0.6
		c0.6-0.4,2.5-0.6,5.7-0.7v-3.3c-4.1,0.2-7.4,0.3-10,0.3c-2.7,0-5.6-0.1-8.8-0.3v3.3c3.5,0,5.5,0.3,6.1,0.8c0.4,0.3,0.6,0.9,0.7,1.9
		c0.3,2.5,0.5,10.8,0.5,24.9v9.1c-3.6-3.7-8.2-8.9-13.7-15.5c-7.7-9.2-14.2-17.3-19.6-24.3l-3.6,0.1l-5.7,0.1c-1.6,0-4-0.1-7.3-0.3
		v3.3c2.8,0.2,4.4,0.4,5,0.5c0.6,0.2,1,0.4,1.2,0.6c0.2,0.3,0.4,0.7,0.6,1.3c0.1,0.6,0.2,1.8,0.2,3.7l0.2,11.4v12.6
		c0,3.5-0.1,6.3-0.2,8.5c-0.2,3.8-0.4,6.2-0.6,7.2c-0.1,0.7-0.3,1.2-0.5,1.5c-0.2,0.2-0.4,0.4-0.7,0.5c-0.4,0.1-2.2,0.3-5.3,0.4
		L497.5,311.8L497.5,311.8L497.5,311.8z M587.9,257.2c-4.3,0-8-0.1-11.3-0.3v3.5c2.8,0.1,4.5,0.2,4.9,0.3c0.5,0.1,0.8,0.3,0.9,0.5
		c0.2,0.2,0.3,0.4,0.4,0.8c0.2,0.8,0.3,2.9,0.5,6.2c0.1,1.5,0.1,4.8,0.1,10v16.4c0,2.7-0.1,5.6-0.3,8.7c-0.1,2.1-0.2,3.4-0.3,3.7
		c-0.1,0.2-0.2,0.4-0.4,0.6s-0.6,0.3-1.1,0.4c-0.4,0.1-2,0.2-4.7,0.3v3.5c3.3-0.2,7.1-0.3,11.3-0.3c4.8,0,9.4,0.1,13.7,0.3v-3.5
		c-2.6,0-4.2-0.1-4.7-0.3c-0.5-0.1-0.9-0.3-1.2-0.5c-0.2-0.2-0.4-0.5-0.5-0.8c-0.3-0.8-0.4-2.6-0.4-5.3l-0.1-7.2v-15.8
		c0-0.5,0.1-4,0.2-10.4c0-1.9,0.1-3.2,0.1-3.8c0.1-1.3,0.2-2.1,0.4-2.5c0.1-0.3,0.2-0.5,0.4-0.6c0.2-0.2,0.6-0.3,1.1-0.4
		s2.1-0.2,4.7-0.3v-3.5C597.3,257.1,592.7,257.2,587.9,257.2L587.9,257.2L587.9,257.2L587.9,257.2z M650.6,312.1
		c1.6-4.5,4.6-12.1,9.1-22.9l5.3-12.6l2.8-6.5c2.2-5.4,3.7-8.4,4.4-8.9c0.4-0.3,1.9-0.6,4.4-0.8v-3.5l-8.5,0.3l-10-0.3v3.5
		c1.2,0,2.6,0.1,4.3,0.3c0.8,0,1.2,0.1,1.4,0.2s0.4,0.3,0.6,0.5c0.1,0.2,0.2,0.6,0.2,1c0,0.3,0,0.6-0.1,0.9c-0.3,1.1-1,3.2-2.2,6.3
		c-1.6,4.5-2.6,6.9-2.8,7.4l-8.7,21.6l-9.9-24.2c-0.1-0.3-0.2-0.5-0.3-0.7s-0.6-1.5-1.6-3.9c-1.7-4.2-2.6-6.7-2.6-7.4
		c0-0.4,0.1-0.7,0.3-1c0.2-0.2,0.6-0.4,1.2-0.6c1-0.2,2.6-0.4,4.8-0.4v-3.5l-14.1,0.3c-1.4,0-5.2-0.1-11.5-0.3v3.5
		c2.5,0,4.1,0.3,4.9,0.7c0.5,0.3,1.3,1.4,2.3,3.4s3.7,8.2,8.1,18.6l5.6,13.3c2,4.9,4.2,10.2,6.4,15.6L650.6,312.1L650.6,312.1
		L650.6,312.1z M707.4,311.5c2.3,0,6.6,0,12.9,0.1l6.3,0.1c3.1,0,5.5-0.1,7.1-0.3l0.5-0.5c0-3.3,0.3-7.6,0.8-12.8h-3.2
		c-0.5,3.5-1,5.9-1.5,7.1c-0.2,0.4-0.3,0.6-0.5,0.7c-0.5,0.3-2,0.6-4.4,0.8c-2.4,0.2-5,0.3-7.8,0.3c-2.9,0-5.4-0.1-7.5-0.3
		c-0.1-1.3-0.1-2.9-0.1-4.7v-16.4c1.7-0.2,3.8-0.3,6.3-0.3c2.8,0,5.2,0.1,7,0.4c0.8,0.1,1.4,0.5,1.7,1c0.4,0.7,0.6,2.6,0.6,5.6h3.2
		l-0.2-8.6l0.2-8.6h-3.2c-0.1,2.3-0.2,4-0.5,5c-0.1,0.4-0.3,0.7-0.6,0.8c-0.2,0.2-1.1,0.2-2.5,0.3c-3.7,0.1-5.9,0.2-6.5,0.2
		c-1.9,0-3.8-0.1-5.5-0.2v-8.1c0-4.6,0.2-8.4,0.5-11.3c2.4-0.2,4.8-0.3,7.1-0.3c2.5,0,5,0.1,7.6,0.4c1.7,0.2,2.8,0.4,3.1,0.6
		c0.2,0.2,0.4,0.4,0.5,0.8c0.2,0.7,0.3,2.6,0.4,5.7h3c0.2-3.4,0.4-5.3,0.4-5.7l0.7-5.7l-0.3-0.5c-0.6-0.2-1-0.3-1.3-0.3
		c-2.9-0.1-4.8-0.2-5.7-0.2l-8,0.2c-4.4,0.1-8.4,0.1-12,0.1c-1.6,0-3.4,0-5.2,0l-9.1,0.1v3c3.1,0.2,5,0.4,5.7,0.7
		c0.3,0.1,0.5,0.3,0.6,0.6c0.3,0.6,0.5,2.5,0.5,5.4c0.1,4.4,0.1,7,0.1,7.6v17.6c0,2-0.1,5.3-0.3,9.8c-0.1,2.5-0.2,4.2-0.4,5.3
		c-1,0.8-2.3,1.5-3.8,2.3v2.1C702.4,311.6,706.7,311.5,707.4,311.5L707.4,311.5L707.4,311.5L707.4,311.5z M758.9,260.9
		c0.3,0.2,0.5,0.4,0.6,0.7c0.3,0.7,0.4,2.6,0.5,5.9l0.2,8.3v14.6l-0.3,11.5c-0.1,2.1-0.2,3.6-0.4,4.6c-0.1,0.5-0.2,0.9-0.3,1.1
		s-0.4,0.3-0.7,0.4c-0.5,0.2-2.3,0.3-5.3,0.4v3.5c3.5-0.2,7.3-0.3,11.3-0.3c4.6,0,9.1,0.1,13.6,0.3v-3.5c-2.5,0-4-0.1-4.5-0.2
		s-0.9-0.2-1.1-0.4c-0.2-0.2-0.4-0.4-0.5-0.6c-0.2-0.4-0.4-1.4-0.4-2.9c0-0.7-0.1-3.8-0.2-9.2c-0.1-4.4-0.1-8.6-0.1-12.5
		c0-2.5,0.1-7.4,0.2-14.8c0.1-3.3,0.2-5.4,0.2-6.3c1.2-0.2,2.5-0.3,3.7-0.3c2.8,0,4.8,0.2,5.9,0.6c1.7,0.6,3.1,1.7,4.3,3.3
		c1.2,1.6,1.7,3.6,1.7,6s-0.5,4.5-1.7,6.5c-1.1,1.9-2.4,3.3-4,4s-4,1.1-7.1,1l-0.4,1.3c0.8,0.6,1.6,1.4,2.4,2.6
		c1.7,2.3,3.7,5.4,6.1,9.4l8.4,13.9c0.5,0.9,0.8,1.7,0.9,2.2c2.1-0.1,4.1-0.1,6.2-0.1c1.8,0,4.7,0,8.8,0.1v-3.5
		c-1.2,0-2.1-0.1-2.5-0.3c-0.4-0.2-0.9-0.5-1.3-1c-0.4-0.5-1.6-2-3.6-4.6c-0.1-0.2-1-1.5-2.6-3.9l-6.1-9.1c-0.2-0.2-0.3-0.5-0.5-0.7
		c-0.1-0.3-0.6-1-1.5-2.2c-0.8-1.2-1.6-2.4-2.2-3.6c4.1-1.5,7.1-3.6,9-6.2c2-2.6,2.9-5.5,2.9-8.6c0-2.7-0.7-4.9-2.2-6.8
		c-1.4-1.9-3.2-3.1-5.2-3.7s-5.1-0.9-9.2-0.9c-2.1,0-4.8,0.1-8,0.2c-2,0.1-4.3,0.2-7.1,0.2c-3.2,0-5.7,0-7.4-0.1
		c-3.6-0.1-5.7-0.2-6.3-0.2v3.2C756.4,260.4,758.3,260.6,758.9,260.9L758.9,260.9L758.9,260.9L758.9,260.9z M860.2,264.8
		c0.2-1.6,0.4-3.3,0.8-5l-0.3-0.9c-1.9-0.9-4.2-1.7-6.8-2.2s-5.3-0.7-8.1-0.7c-2.7,0-5.3,0.3-7.8,0.9s-4.8,1.6-6.8,2.9
		c-2,1.4-3.6,3.3-4.9,5.7c-1.2,2.5-1.8,5.2-1.8,8.1c0,2.1,0.3,4,1,5.9c0.7,1.8,1.7,3.4,3.1,4.6c1.4,1.3,3.2,2.3,5.4,2.9
		c1.5,0.4,4.6,1.2,9.3,2.2c3.3,0.8,5.6,1.5,6.9,2.2c1.3,0.7,2.3,1.6,2.9,2.8c0.6,1.2,0.9,2.6,0.9,4.2c0,2-0.4,3.7-1.3,5.3
		c-0.9,1.5-2.3,2.7-4.2,3.6s-4.2,1.3-6.7,1.3c-2.9,0-5.5-0.6-7.9-1.8c-2.4-1.2-4.1-2.7-5.1-4.3c-0.3-2.8-0.5-5.2-0.4-7h-3.3
		c0,6.1-0.4,10.6-1.3,13.6c3,1.5,5.8,2.5,8.3,3.1s5.4,0.9,8.6,0.9c4.4,0,8.2-0.6,11.3-1.9c2-0.8,3.9-2,5.7-3.5
		c1.9-1.6,3.3-3.3,4.4-5.2c1.4-2.5,2.1-5.5,2.1-8.8c0-1.9-0.2-3.6-0.7-5.2c-0.5-1.5-1.1-2.8-1.9-3.8c-0.8-1-1.8-1.9-3.1-2.7
		c-1.3-0.8-3-1.4-5.1-2c-0.8-0.2-2.6-0.5-5.3-1s-4.8-0.9-6.3-1.2c-2-0.5-3.5-1.1-4.5-1.7s-1.8-1.5-2.3-2.6s-0.8-2.5-0.9-4.2
		c0-2.4,1-4.5,2.9-6.3c2-1.8,4.7-2.7,8.3-2.7c2.5,0,4.7,0.4,6.7,1.3s3.4,1.9,4.2,3.1c0.2,1.3,0.3,3.4,0.4,6.4h3.3
		C859.9,268.6,860.1,266.4,860.2,264.8L860.2,264.8L860.2,264.8z M895.1,257.2c-4.3,0-8-0.1-11.3-0.3v3.5c2.8,0.1,4.5,0.2,4.9,0.3
		c0.5,0.1,0.8,0.3,0.9,0.5c0.2,0.2,0.3,0.4,0.4,0.8c0.2,0.8,0.3,2.9,0.5,6.2c0.1,1.5,0.1,4.8,0.1,10v16.4c0,2.7-0.1,5.6-0.3,8.7
		c-0.1,2.1-0.2,3.4-0.3,3.7c-0.1,0.2-0.2,0.4-0.4,0.6s-0.6,0.3-1.1,0.4c-0.4,0.1-2,0.2-4.7,0.3v3.5c3.3-0.2,7.1-0.3,11.3-0.3
		c4.8,0,9.4,0.1,13.7,0.3v-3.5c-2.6,0-4.2-0.1-4.7-0.3c-0.5-0.1-0.9-0.3-1.2-0.5c-0.2-0.2-0.4-0.5-0.5-0.8c-0.3-0.8-0.4-2.6-0.4-5.3
		l-0.1-7.2v-15.8c0-0.5,0.1-4,0.2-10.4c0-1.9,0.1-3.2,0.1-3.8c0.1-1.3,0.2-2.1,0.4-2.5c0.1-0.3,0.2-0.5,0.4-0.6
		c0.2-0.2,0.6-0.3,1.1-0.4s2.1-0.2,4.7-0.3v-3.5C904.4,257.1,899.9,257.2,895.1,257.2L895.1,257.2L895.1,257.2L895.1,257.2z
		 M949.6,311.5c3.5,0,7.8,0.1,12.8,0.3v-3.2c-3.2-0.1-5-0.3-5.6-0.6c-0.6-0.3-1-0.8-1.2-1.5c-0.3-1.1-0.4-4.5-0.4-10.2v-23.5
		c0-6.2,0-9.8,0.1-10.7h5.6c3,0,5.6,0.1,7.7,0.3c0.7,0,1.1,0.1,1.3,0.3c0.2,0.2,0.4,0.7,0.5,1.7c0.3,1.9,0.5,3.8,0.5,5.8h3.2
		c0.1-5.5,0.1-8.4,0.2-8.6c0-1.2,0.2-2.6,0.4-4.2l-0.4-0.4c-1.2,0.1-2.4,0.2-3.6,0.3c-2.2,0.1-6.6,0.1-13.2,0.1h-15.8
		c-6.4,0-10.7,0-13-0.1c-1.4,0-2.7-0.1-3.9-0.3l-0.3,0.4c0.2,1.3,0.3,2.6,0.4,3.7c0,0.7,0.1,3.7,0.2,9.1h3.2
		c0.1-2.3,0.3-4.3,0.6-6.2c0.1-0.8,0.3-1.2,0.5-1.4c0.1-0.1,0.6-0.2,1.5-0.3c2.1-0.2,4.6-0.3,7.5-0.3h5.6c0.1,0.8,0.1,4.3,0.1,10.7
		v23.5c0,5.6-0.1,9-0.4,10.2c-0.2,0.7-0.6,1.3-1.2,1.6c-0.6,0.3-2.5,0.5-5.6,0.6v3.2C941.6,311.6,945.9,311.5,949.6,311.5
		L949.6,311.5L949.6,311.5L949.6,311.5z M1013.8,272c-1.9-3.7-3.8-6.9-5.7-9.8c-1.3-1.9-2.3-3.2-3-3.9c-0.7-0.7-1.9-1.5-3.5-2.4
		c-1.5,0.4-2.9,0.7-4.4,1.1l-8.3,1.6v2.9c2,0,3.1,0.1,3.5,0.2c0.5,0.3,1.5,1.1,2.8,2.5c2,2.1,4.1,5,6.3,8.5
		c2.8,4.4,5.4,8.8,7.9,13.3c1,1.9,1.5,3.1,1.5,3.7v7.4c0,2.1-0.1,4.6-0.2,7.6c-0.1,1.3-0.2,2.1-0.4,2.3c-0.2,0.3-0.5,0.5-1.1,0.6
		c-0.5,0.1-2.2,0.2-5.2,0.4v3.5c4-0.2,8-0.3,11.9-0.3c4,0,8.5,0.1,13.5,0.3V308c-2.9,0-4.6-0.2-5.2-0.3c-0.6-0.2-0.9-0.4-1.2-0.7
		c-0.2-0.3-0.4-1.2-0.6-2.7c-0.2-1.5-0.3-3.9-0.3-7.3v-6.6c0-1.4,0.1-2.3,0.2-2.9c0.2-0.8,0.6-1.8,1.1-2.9c0.9-1.6,3.1-5.4,6.8-11.1
		c3.7-5.8,7.1-10.8,10.3-15v-1.8h-6.2c-0.4,0.8-1.3,2.4-2.7,4.9c-4.1,7.3-6.6,11.7-7.4,13.1l-4.9,8
		C1018.7,281.6,1016.9,277.9,1013.8,272L1013.8,272L1013.8,272L1013.8,272z"/>
	<polygon class="st1" points="261.7,431.1 261.7,377.5 311.1,377.5 311.1,342.2 261.7,342.2 261.7,292.1 315.9,292.1 315.9,311.5 
		351.7,311.5 351.7,257 208.4,257 208.4,292.1 221.9,292.1 221.9,431.1 208.5,431.1 208.5,466.5 274.6,466.5 274.6,431.1 	"/>
	<path class="st1" d="M189.8,387.3v-95.2H203v-35h-66.3v35h12.9v83.4c0,35-4,51.8-29.1,51.8s-29.1-16.8-29.1-51.8v-83.4h12.8v-35
		H37.9v35H51v95.2c0,20.8,0,37.8,9.8,53.2c11,17.3,30.9,28.4,59.7,28.4C171.6,468.8,189.8,442.2,189.8,387.3L189.8,387.3
		L189.8,387.3z"/>
	<polygon class="st0" points="384.4,257 384.4,466.4 393.7,466.4 393.7,257 	"/>
	<path class="st1" d="M1082.9,311.3c0.8,2.2,2.3,4,4.4,5.2c2.1,1.3,4.9,1.9,8.5,1.9c3,0,5.8-0.5,8.2-1.4c2.4-0.9,5-2.3,7.6-4
		c2.6-1.8,4.6-3.4,5.8-4.8c1.7-2.1,3.2-5.1,4.5-9s2-7.9,2-11.8c0-2.1-0.3-4-0.8-5.8s-1.3-3.3-2.4-4.5c-1.1-1.3-2.7-2.3-4.9-3.1
		c-2.1-0.8-4.5-1.2-7.1-1.2c-3.1,0-6,0.6-8.8,1.8c-2.8,1.2-5.3,2.7-7.6,4.5c-2.3,1.8-3.9,3.3-4.8,4.4c-1.5,1.8-2.8,4.7-4.1,8.7
		c-1.3,4-1.9,7.9-1.9,11.7C1081.7,306.6,1082.1,309.1,1082.9,311.3L1082.9,311.3L1082.9,311.3z M1094.4,289.8
		c1.3-5,2.9-8.5,4.6-10.3s3.8-2.7,6.2-2.7c2.4,0,4.3,0.8,5.7,2.5c1.5,1.6,2.2,4.3,2.2,8c0,4.3-0.6,8.9-1.9,13.7
		c-0.9,3.3-1.8,5.8-2.9,7.7c-1,1.9-2.2,3.2-3.4,4c-1.3,0.8-2.7,1.2-4.5,1.2c-2.6,0-4.5-0.8-6-2.4c-1.4-1.6-2.1-4.3-2.1-8
		C1092.4,299.5,1093.1,294.9,1094.4,289.8L1094.4,289.8L1094.4,289.8z M1136,279.2c2.2,0,4.1,0,5.9,0l-6.5,33.8
		c-1.7,9.3-3.1,15.3-4.2,18.2c-0.5,1.4-1.2,2.4-1.9,3c-0.7,0.6-1.5,0.8-2.4,0.8s-1.7-0.3-2.5-0.9c-0.7-0.6-1.4-1.7-2.1-3.1l-1.4,0.3
		c-0.3,1.6-0.7,3.1-1.1,4.5s-1,3.2-1.9,5.4c1.2,0.5,2.4,0.8,3.4,0.8c1.4,0,2.9-0.4,4.4-1.2c2.9-1.5,5.8-4,8.7-7.3
		c2.9-3.3,5.1-7.1,6.8-11.5c1.7-4.3,3.8-11.4,6.2-21.1l5-21.8c1,0,2.5,0,4.5,0c3.2,0,5.6,0,7,0c0.3-1.5,0.8-3,1.4-4.7l-0.4-0.7
		c-1,0.2-2.4,0.3-4.4,0.4c-3.2,0.2-5.3,0.3-6.1,0.3h-1c0.7-4,1.6-8,2.7-12c0.4-1.5,0.8-2.6,1.2-3.3c0.4-0.7,1-1.3,1.7-1.7
		c0.7-0.4,1.4-0.6,2.2-0.6c1,0,2.1,0.4,3.3,1.2c1.2,0.8,2.4,2.1,3.7,4l1.4-0.3c0.5-3.6,1.4-7.5,2.6-11.6c-1.3-0.5-2.5-0.7-3.7-0.7
		c-1.8,0-3.3,0.2-4.3,0.7c-1,0.4-3.1,1.8-6.3,4.1c-3.2,2.3-6.1,4.7-8.8,7.1c-1.7,1.6-2.9,3.2-3.8,4.7c-0.5,1-1.1,2.7-1.6,5.3
		c-0.2,1.2-0.4,1.9-0.6,2.4c-1.3,0.6-2.9,1.1-4.9,1.7s-3.5,1-4.4,1.4l-0.4,2.3C1134,279.2,1134.9,279.2,1136,279.2L1136,279.2
		L1136,279.2L1136,279.2z"/>
	<path class="st1" d="M508,381.2h-8.2c-0.1,5.5-0.5,9.1-1,10.6c-0.4,1.2-1,1.9-1.8,2.1c-2.1,0.7-7.2,1.1-15.3,1.1
		c-2.8,0-8.2-0.2-16.1-0.7v-13c0-16.2,0.4-27.4,1.1-33.6c1.7-0.1,5-0.3,9.8-0.4c4.8-0.2,7.8-0.3,8.8-0.3c5.5,0,10.3,0.4,14.3,1.1
		c4.1,0.7,6.7,1.4,7.8,2.2c0.4,0.2,0.6,0.5,0.8,0.9c0.2,0.6,0.4,2.2,0.6,4.9c0.3,5.2,0.5,8.5,0.5,10h7.6c0.1-4.1,0.3-8.9,0.8-14.4
		s1.1-10,1.8-13.6l-0.8-1.3c-5.6-0.6-11.6-0.9-17.9-0.9l-45,0.9l-33.2-0.7v7.8c6,0.4,9.7,0.7,11.1,1c1.3,0.3,2.2,0.6,2.6,1
		c0.4,0.3,0.7,0.9,0.9,1.5c0.6,2,0.9,5.4,1,10.2c0.6,16.6,0.9,25.4,0.9,26.2v38.8c0,3.3-0.2,8.8-0.5,16.3
		c-0.3,7.6-0.6,12.1-0.8,13.5c-0.3,2.5-0.8,4.1-1.3,4.9c-0.4,0.5-0.8,0.8-1.4,1c-1.1,0.4-5.3,0.7-12.5,0.8v7.7
		c11.5-0.4,19.9-0.7,25.2-0.7l36.8,0.7v-7.4c-8.7-0.6-13.6-1.1-14.7-1.5s-1.9-0.9-2.3-1.6c-0.6-1-1.1-4.5-1.5-10.4
		c-0.4-6-0.5-16.3-0.5-31.1v-10.4c3.5-0.1,6-0.1,7.5-0.1c9.9,0,17.2,0.4,21.8,1.2c1.8,0.4,2.9,1,3.4,1.8c0.9,1.6,1.4,6.3,1.6,14.1
		h8.2C508,405.3,508,391.7,508,381.2L508,381.2L508,381.2L508,381.2z M560.1,466.3c4,0,11.2,0.1,21.5,0.4c13.5,0.3,20.9,0.5,22,0.5
		c8,0,13.9-0.2,17.7-0.5c1.8-0.2,3.6-0.5,5.4-1.1c0.1-1.2,0.3-4.7,0.8-10.7l2.3-18.9c0-0.3,0.1-1.3,0.3-3.1h-7.7
		c-1.2,6.1-2.4,11.6-3.7,16.4c-0.6,1.9-1.1,3-1.6,3.5c-0.5,0.4-2,0.8-4.6,1.2c-7.1,1.1-15.3,1.6-24.8,1.6c-3.1,0-9-0.2-17.6-0.7
		c-0.1-1.9-0.1-7.2-0.1-16s-0.1-17.6-0.1-26.5c-0.1-16.9-0.1-25.9-0.1-27c0-10.5,0.1-19.2,0.4-26c0.3-6.9,0.6-10.7,0.9-11.6
		c0.3-0.8,0.8-1.5,1.5-1.8c1.6-0.8,5.9-1.4,12.9-1.7v-8.2c-10.2,0.5-20.9,0.7-32.3,0.7c-10.2,0-19.2-0.2-27.1-0.7v8.2
		c8.1,0.3,12.9,0.9,14.4,1.9c0.7,0.4,1.2,0.9,1.4,1.7c0.6,1.7,1,8.4,1.2,20.1c0.1,4.6,0.2,16.8,0.2,36.5c0,13.4-0.1,24.9-0.4,34.5
		c-0.3,9.6-0.5,15.1-0.9,16.7c-0.1,0.4-0.2,0.7-0.5,1c-0.4,0.5-1.2,1.1-2.5,1.9c-2.9,1.8-5.2,3-6.8,3.7v4.8
		C544.7,466.6,554,466.3,560.1,466.3L560.1,466.3L560.1,466.3L560.1,466.3z M640.8,440.4c5.7,9.9,13.6,17.4,23.7,22.5
		c10.1,5.1,22.1,7.6,36.1,7.6c13,0,24.5-2.1,34.6-6.3c7.4-3.1,13.9-7.6,19.7-13.4s10.1-12.4,13.1-19.9c4-10,6.1-20.9,6.1-32.7
		c0-6.9-0.7-13.3-2.1-19c-1.4-5.7-3.5-11-6.2-15.8s-6.7-9.5-12-14.1s-11.3-8.1-18.2-10.5c-9.2-3.2-19.5-4.8-30.9-4.8
		s-21.9,1.7-31.6,5c-7.5,2.6-14.5,6.9-20.9,12.8s-11.4,13.1-14.8,21.6c-3.5,8.5-5.2,18.4-5.2,29.9
		C632.2,418.1,635,430.4,640.8,440.4L640.8,440.4L640.8,440.4z M665.3,370c2.9-8.4,7.6-14.7,13.9-19c6.4-4.3,14.1-6.4,23.3-6.4
		c8,0,14.4,1.3,19.2,4s9,6.6,12.6,11.7c3.5,5.1,6.3,11.3,8.2,18.5s2.9,15.3,2.9,24c0,12.8-1.8,23.6-5.3,32.5s-8.4,15.3-14.6,19
		c-6.2,3.7-13.2,5.6-21.1,5.6c-8.5,0-15.8-2-22.1-5.9c-6.2-3.9-11.3-10.7-15.3-20.2s-6-21.6-6-36.1
		C660.9,387.6,662.4,378.3,665.3,370L665.3,370L665.3,370z M787.7,345.9c0.6,0.4,1.1,0.9,1.4,1.6c0.6,1.6,1,6.2,1.1,14l0.5,19.7V416
		l-0.8,27.3c-0.2,4.9-0.5,8.6-0.9,11c-0.2,1.3-0.5,2.2-0.8,2.6s-0.9,0.7-1.6,0.9c-1.3,0.4-5.5,0.8-12.6,1v8.2
		c8.3-0.4,17.3-0.7,27-0.7c10.9,0,21.7,0.2,32.3,0.7v-8.2c-6-0.1-9.6-0.3-10.9-0.6c-1.2-0.2-2.2-0.6-2.7-1c-0.6-0.4-1-0.9-1.2-1.4
		c-0.5-1.1-0.8-3.3-1-6.8c-0.1-1.7-0.3-9-0.6-21.9c-0.2-10.5-0.3-20.4-0.3-29.7c0-5.9,0.2-17.7,0.6-35.3c0.2-7.9,0.4-12.9,0.6-15.2
		c2.9-0.5,5.9-0.8,8.9-0.8c6.7,0,11.4,0.5,14,1.4c4.1,1.5,7.5,4.1,10.2,8c2.7,3.8,4.1,8.6,4.1,14.3c0,5.7-1.3,10.8-3.9,15.4
		c-2.6,4.6-5.8,7.8-9.7,9.5c-3.8,1.8-9.5,2.5-17,2.3l-1,3.1c1.9,1.4,3.8,3.4,5.8,6.2c4,5.4,8.9,12.9,14.6,22.3l20,33
		c1.2,2.2,1.9,4,2.2,5.3c4.9-0.3,9.9-0.4,14.9-0.4c4.3,0,11.2,0.1,20.9,0.4v-8.2c-2.9-0.1-4.9-0.3-5.9-0.7c-1-0.4-2-1.2-3.1-2.3
		c-1.1-1.1-3.9-4.8-8.6-11c-0.3-0.4-2.4-3.5-6.3-9.3l-14.5-21.6c-0.4-0.6-0.7-1.1-1.1-1.8c-0.3-0.6-1.5-2.4-3.5-5.3
		s-3.8-5.8-5.3-8.5c9.7-3.6,17-8.5,21.7-14.7s7-13,7-20.6c0-6.4-1.7-11.8-5.1-16.2c-3.4-4.4-7.6-7.3-12.5-8.8
		c-4.9-1.4-12.2-2.1-22-2.1c-5.1,0-11.5,0.2-19.2,0.5c-4.7,0.3-10.3,0.4-16.8,0.4c-7.7,0-13.6-0.1-17.8-0.2
		c-8.5-0.3-13.5-0.5-15-0.5v7.6C781.7,344.6,786.3,345.2,787.7,345.9L787.7,345.9L787.7,345.9L787.7,345.9z M937,336.9
		c-10.2,0-19.2-0.2-27.1-0.7v8.2c6.8,0.3,10.8,0.5,11.9,0.8c1.1,0.3,1.9,0.6,2.2,1.1c0.4,0.4,0.7,1.1,0.9,1.9c0.4,2,0.8,7,1.1,14.9
		c0.1,3.6,0.2,11.6,0.2,24v39.1c0,6.4-0.3,13.3-0.8,20.8c-0.3,5.1-0.6,8.1-0.7,8.8c-0.1,0.6-0.4,1.1-0.9,1.5s-1.4,0.8-2.7,1
		c-1,0.2-4.7,0.4-11.2,0.6v8.2c7.9-0.4,16.8-0.7,26.9-0.7c11.6,0,22.4,0.2,32.6,0.7v-8.2c-6.2-0.1-9.9-0.3-11.2-0.6
		c-1.3-0.3-2.2-0.6-2.8-1.1s-1-1.1-1.3-2c-0.6-1.9-0.9-6.1-0.9-12.5l-0.3-17.1v-37.7c0-1.2,0.1-9.5,0.4-24.8
		c0.1-4.5,0.2-7.6,0.3-9.2c0.2-3,0.5-5,0.9-6.1c0.2-0.6,0.5-1.1,1-1.5s1.4-0.8,2.5-1c1.2-0.3,5-0.5,11.3-0.7v-8.2
		C959.2,336.7,948.4,336.9,937,336.9L937,336.9L937,336.9L937,336.9z M1009.4,466.5l27.8,0.7c12.6,0,23.3-1.4,32.3-4.2
		c8.9-2.8,17.2-7.3,24.8-13.6c7.6-6.3,13.6-14.1,18-23.5s6.5-20,6.5-31.9c0-9.4-1.5-18-4.4-25.8c-1.7-4.7-4.3-9-7.7-13.1
		c-3.4-4.1-7.6-7.6-12.5-10.5c-4.9-3-10.7-5.1-17.3-6.5c-6.6-1.3-15.5-2-26.5-2c-4.8,0-11.2,0.1-19.2,0.3c-11,0.4-18.5,0.5-22.5,0.5
		l-33.9-0.7v7.5c6.8,0.9,10.7,1.4,11.7,1.7c1.1,0.3,1.8,0.6,2.3,1.1c0.3,0.3,0.6,0.7,0.7,1.3c0.6,2.4,1,8.1,1.2,16.9
		c0.3,15.9,0.5,28,0.5,36.2v15.4c0,18.8-0.4,32.4-1.1,40.7c-2,1.4-4.1,2.8-6.5,4.1c-1.2,0.7-2.1,1.2-2.6,1.5v4.5L1009.4,466.5
		L1009.4,466.5L1009.4,466.5z M1017.5,418.9v-21.5c0-24.5,0.3-41.1,1-50c5.8-0.8,11.1-1.3,15.9-1.3c12.8,0,22.3,1.1,28.6,3.4
		c6.3,2.2,11.5,5.9,15.6,10.9s7.1,10.8,8.9,17.4s2.7,13.5,2.7,20.6c0,7.8-0.9,15.1-2.7,21.8c-1.8,6.7-4.4,12.5-7.6,17.4
		c-3.3,4.9-6.7,8.5-10.2,11c-3.6,2.5-7.7,4.4-12.4,5.7c-6.4,1.7-13.8,2.6-22.1,2.6c-5.3,0-10.9-0.5-16.7-1.5
		C1017.8,449.7,1017.5,437.5,1017.5,418.9L1017.5,418.9L1017.5,418.9L1017.5,418.9z M1123.6,466.5l21.6,0.7v-7.7
		c-7.4-0.2-11.9-0.8-13.4-1.7c-1-0.6-1.5-1.7-1.5-3.2c0-2.1,1.6-7.5,4.7-16l4.1-11.2h48.3l8,20.5c1.4,3.5,2.2,6.1,2.2,7.6
		c0,1.2-0.5,2.1-1.4,2.7c-1,0.5-5.2,0.9-12.8,1.3v7.7l32.8-0.7l26,0.7v-7.7c-1.8-0.2-3.2-0.3-4.1-0.5c-2.9-0.2-4.8-0.4-5.5-0.7
		c-0.7-0.3-1.4-0.6-1.9-1.1c-0.6-0.5-1.2-1.3-1.8-2.4l-3.7-8.6l-5.8-12.8l-41.8-97.7h-13.3l-8.2,21.2l-24.4,60.3
		c-4.6,11.4-7.7,19.1-9.4,22.9c-3.6,8.2-5.7,13-6.4,14.3c-0.7,1.3-1.4,2.2-2.1,2.8c-0.7,0.6-1.5,1-2.5,1.3s-4,0.6-9,1v7.7
		L1123.6,466.5L1123.6,466.5L1123.6,466.5z M1162.7,368.2l20,48.4c-5.7,0.2-12.1,0.3-19.3,0.3c-7.4,0-14.1-0.1-20-0.3L1162.7,368.2
		L1162.7,368.2L1162.7,368.2z"/>
	<path class="st1" d="M427.7,260.7c0.5,0.4,0.9,0.7,1,1c0.2,0.5,0.4,1.4,0.5,2.5c0.1,2.9,0.2,6.2,0.2,9.9v10v7.5
		c0,4.1,0.1,6.7,0.2,7.6c0.2,1.5,0.7,3.1,1.5,4.7s2.1,3.1,3.6,4.4c1.6,1.3,3.7,2.4,6.2,3.2c3.5,1.1,7.2,1.6,11.1,1.6
		c3.4,0,6.4-0.4,9-1.1s4.8-1.8,6.7-3.3c1.9-1.4,3.3-3,4.4-4.8c1-1.8,1.7-3.9,2.1-6.4c0.3-2.5,0.5-4.9,0.5-7.3V281
		c0-2.7,0.1-6.4,0.3-11.1c0.2-4.7,0.4-7.4,0.6-7.9c0.2-0.6,0.5-1,0.8-1.2c0.6-0.4,2.2-0.6,4.6-0.6V257l-8.7,0.2c-0.5,0-0.8,0-1.1,0
		c-0.9,0-3.7-0.1-8.4-0.3v3.2c2.9,0.1,4.8,0.3,5.6,0.8c0.4,0.2,0.7,0.5,0.9,0.9c0.3,0.7,0.5,2.7,0.5,6c0,1.5,0,5.7,0,12.6v8
		c0,5.6-0.5,9.4-1.4,11.3c-0.9,2-2.5,3.6-4.6,4.9c-2.2,1.2-5.1,1.9-8.7,1.9c-3.2,0-5.8-0.5-7.8-1.4c-2.1-0.9-3.6-2.1-4.6-3.7
		c-1-1.5-1.6-3.5-1.8-5.9c-0.1-1.1-0.2-4.1-0.2-8.9V282v-9.1c0-5.5,0.2-9.1,0.5-10.7c0.1-0.7,0.4-1.1,0.8-1.4
		c0.8-0.5,2.6-0.7,5.4-0.7v-3.2h-1.5l-5.3,0.1l-5.3,0.1l-12.8-0.3v3.2L427.7,260.7L427.7,260.7L427.7,260.7z M497.5,311.8
		c4.4-0.2,7.8-0.3,10.4-0.3c0.7,0,3.5,0.1,8.5,0.1v-3.2c-0.4,0-0.6,0-0.8,0c-0.8,0-2-0.1-3.7-0.3c-0.6-0.1-1.1-0.2-1.3-0.4
		c-0.2-0.2-0.4-0.5-0.5-0.8c-0.2-0.7-0.4-2.5-0.5-5.5c-0.2-4.4-0.3-8.6-0.3-12.7v-19.5c15.5,18.9,27.5,33.1,35.9,42.5
		c2.3,0.3,4.5,0.6,6.7,1l0.5-0.4c-0.4-3.7-0.5-14.3-0.5-31.7c0-2.2,0.1-5.7,0.2-10.3c0.1-4.7,0.4-7.7,0.8-9c0.1-0.3,0.2-0.5,0.4-0.6
		c0.6-0.4,2.5-0.6,5.7-0.7v-3.3c-4.1,0.2-7.4,0.3-10,0.3c-2.7,0-5.6-0.1-8.8-0.3v3.3c3.5,0,5.5,0.3,6.1,0.8c0.4,0.3,0.6,0.9,0.7,1.9
		c0.3,2.5,0.5,10.8,0.5,24.9v9.1c-3.6-3.7-8.2-8.9-13.7-15.5c-7.7-9.2-14.2-17.3-19.6-24.3l-3.6,0.1l-5.7,0.1c-1.6,0-4-0.1-7.3-0.3
		v3.3c2.8,0.2,4.4,0.4,5,0.5c0.6,0.2,1,0.4,1.2,0.6c0.2,0.3,0.4,0.7,0.6,1.3c0.1,0.6,0.2,1.8,0.2,3.7l0.2,11.4v12.6
		c0,3.5-0.1,6.3-0.2,8.5c-0.2,3.8-0.4,6.2-0.6,7.2c-0.1,0.7-0.3,1.2-0.5,1.5c-0.2,0.2-0.4,0.4-0.7,0.5c-0.4,0.1-2.2,0.3-5.3,0.4
		L497.5,311.8L497.5,311.8L497.5,311.8z M587.9,257.2c-4.3,0-8-0.1-11.3-0.3v3.5c2.8,0.1,4.5,0.2,4.9,0.3c0.5,0.1,0.8,0.3,0.9,0.5
		c0.2,0.2,0.3,0.4,0.4,0.8c0.2,0.8,0.3,2.9,0.5,6.2c0.1,1.5,0.1,4.8,0.1,10v16.4c0,2.7-0.1,5.6-0.3,8.7c-0.1,2.1-0.2,3.4-0.3,3.7
		c-0.1,0.2-0.2,0.4-0.4,0.6s-0.6,0.3-1.1,0.4c-0.4,0.1-2,0.2-4.7,0.3v3.5c3.3-0.2,7.1-0.3,11.3-0.3c4.8,0,9.4,0.1,13.7,0.3v-3.5
		c-2.6,0-4.2-0.1-4.7-0.3c-0.5-0.1-0.9-0.3-1.2-0.5c-0.2-0.2-0.4-0.5-0.5-0.8c-0.3-0.8-0.4-2.6-0.4-5.3l-0.1-7.2v-15.8
		c0-0.5,0.1-4,0.2-10.4c0-1.9,0.1-3.2,0.1-3.8c0.1-1.3,0.2-2.1,0.4-2.5c0.1-0.3,0.2-0.5,0.4-0.6c0.2-0.2,0.6-0.3,1.1-0.4
		s2.1-0.2,4.7-0.3v-3.5C597.3,257.1,592.7,257.2,587.9,257.2L587.9,257.2L587.9,257.2L587.9,257.2z M650.6,312.1
		c1.6-4.5,4.6-12.1,9.1-22.9l5.3-12.6l2.8-6.5c2.2-5.4,3.7-8.4,4.4-8.9c0.4-0.3,1.9-0.6,4.4-0.8v-3.5l-8.5,0.3l-10-0.3v3.5
		c1.2,0,2.6,0.1,4.3,0.3c0.8,0,1.2,0.1,1.4,0.2s0.4,0.3,0.6,0.5c0.1,0.2,0.2,0.6,0.2,1c0,0.3,0,0.6-0.1,0.9c-0.3,1.1-1,3.2-2.2,6.3
		c-1.6,4.5-2.6,6.9-2.8,7.4l-8.7,21.6l-9.9-24.2c-0.1-0.3-0.2-0.5-0.3-0.7s-0.6-1.5-1.6-3.9c-1.7-4.2-2.6-6.7-2.6-7.4
		c0-0.4,0.1-0.7,0.3-1c0.2-0.2,0.6-0.4,1.2-0.6c1-0.2,2.6-0.4,4.8-0.4v-3.5l-14.1,0.3c-1.4,0-5.2-0.1-11.5-0.3v3.5
		c2.5,0,4.1,0.3,4.9,0.7c0.5,0.3,1.3,1.4,2.3,3.4s3.7,8.2,8.1,18.6l5.6,13.3c2,4.9,4.2,10.2,6.4,15.6L650.6,312.1L650.6,312.1
		L650.6,312.1z M707.4,311.5c2.3,0,6.6,0,12.9,0.1l6.3,0.1c3.1,0,5.5-0.1,7.1-0.3l0.5-0.5c0-3.3,0.3-7.6,0.8-12.8h-3.2
		c-0.5,3.5-1,5.9-1.5,7.1c-0.2,0.4-0.3,0.6-0.5,0.7c-0.5,0.3-2,0.6-4.4,0.8c-2.4,0.2-5,0.3-7.8,0.3c-2.9,0-5.4-0.1-7.5-0.3
		c-0.1-1.3-0.1-2.9-0.1-4.7v-16.4c1.7-0.2,3.8-0.3,6.3-0.3c2.8,0,5.2,0.1,7,0.4c0.8,0.1,1.4,0.5,1.7,1c0.4,0.7,0.6,2.6,0.6,5.6h3.2
		l-0.2-8.6l0.2-8.6h-3.2c-0.1,2.3-0.2,4-0.5,5c-0.1,0.4-0.3,0.7-0.6,0.8c-0.2,0.2-1.1,0.2-2.5,0.3c-3.7,0.1-5.9,0.2-6.5,0.2
		c-1.9,0-3.8-0.1-5.5-0.2v-8.1c0-4.6,0.2-8.4,0.5-11.3c2.4-0.2,4.8-0.3,7.1-0.3c2.5,0,5,0.1,7.6,0.4c1.7,0.2,2.8,0.4,3.1,0.6
		c0.2,0.2,0.4,0.4,0.5,0.8c0.2,0.7,0.3,2.6,0.4,5.7h3c0.2-3.4,0.4-5.3,0.4-5.7l0.7-5.7l-0.3-0.5c-0.6-0.2-1-0.3-1.3-0.3
		c-2.9-0.1-4.8-0.2-5.7-0.2l-8,0.2c-4.4,0.1-8.4,0.1-12,0.1c-1.6,0-3.4,0-5.2,0l-9.1,0.1v3c3.1,0.2,5,0.4,5.7,0.7
		c0.3,0.1,0.5,0.3,0.6,0.6c0.3,0.6,0.5,2.5,0.5,5.4c0.1,4.4,0.1,7,0.1,7.6v17.6c0,2-0.1,5.3-0.3,9.8c-0.1,2.5-0.2,4.2-0.4,5.3
		c-1,0.8-2.3,1.5-3.8,2.3v2.1C702.4,311.6,706.7,311.5,707.4,311.5L707.4,311.5L707.4,311.5L707.4,311.5z M758.9,260.9
		c0.3,0.2,0.5,0.4,0.6,0.7c0.3,0.7,0.4,2.6,0.5,5.9l0.2,8.3v14.6l-0.3,11.5c-0.1,2.1-0.2,3.6-0.4,4.6c-0.1,0.5-0.2,0.9-0.3,1.1
		s-0.4,0.3-0.7,0.4c-0.5,0.2-2.3,0.3-5.3,0.4v3.5c3.5-0.2,7.3-0.3,11.3-0.3c4.6,0,9.1,0.1,13.6,0.3v-3.5c-2.5,0-4-0.1-4.5-0.2
		s-0.9-0.2-1.1-0.4c-0.2-0.2-0.4-0.4-0.5-0.6c-0.2-0.4-0.4-1.4-0.4-2.9c0-0.7-0.1-3.8-0.2-9.2c-0.1-4.4-0.1-8.6-0.1-12.5
		c0-2.5,0.1-7.4,0.2-14.8c0.1-3.3,0.2-5.4,0.2-6.3c1.2-0.2,2.5-0.3,3.7-0.3c2.8,0,4.8,0.2,5.9,0.6c1.7,0.6,3.1,1.7,4.3,3.3
		c1.2,1.6,1.7,3.6,1.7,6s-0.5,4.5-1.7,6.5c-1.1,1.9-2.4,3.3-4,4s-4,1.1-7.1,1l-0.4,1.3c0.8,0.6,1.6,1.4,2.4,2.6
		c1.7,2.3,3.7,5.4,6.1,9.4l8.4,13.9c0.5,0.9,0.8,1.7,0.9,2.2c2.1-0.1,4.1-0.1,6.2-0.1c1.8,0,4.7,0,8.8,0.1v-3.5
		c-1.2,0-2.1-0.1-2.5-0.3c-0.4-0.2-0.9-0.5-1.3-1c-0.4-0.5-1.6-2-3.6-4.6c-0.1-0.2-1-1.5-2.6-3.9l-6.1-9.1c-0.2-0.2-0.3-0.5-0.5-0.7
		c-0.1-0.3-0.6-1-1.5-2.2c-0.8-1.2-1.6-2.4-2.2-3.6c4.1-1.5,7.1-3.6,9-6.2c2-2.6,2.9-5.5,2.9-8.6c0-2.7-0.7-4.9-2.2-6.8
		c-1.4-1.9-3.2-3.1-5.2-3.7s-5.1-0.9-9.2-0.9c-2.1,0-4.8,0.1-8,0.2c-2,0.1-4.3,0.2-7.1,0.2c-3.2,0-5.7,0-7.4-0.1
		c-3.6-0.1-5.7-0.2-6.3-0.2v3.2C756.4,260.4,758.3,260.6,758.9,260.9L758.9,260.9L758.9,260.9L758.9,260.9z M860.2,264.8
		c0.2-1.6,0.4-3.3,0.8-5l-0.3-0.9c-1.9-0.9-4.2-1.7-6.8-2.2s-5.3-0.7-8.1-0.7c-2.7,0-5.3,0.3-7.8,0.9s-4.8,1.6-6.8,2.9
		c-2,1.4-3.6,3.3-4.9,5.7c-1.2,2.5-1.8,5.2-1.8,8.1c0,2.1,0.3,4,1,5.9c0.7,1.8,1.7,3.4,3.1,4.6c1.4,1.3,3.2,2.3,5.4,2.9
		c1.5,0.4,4.6,1.2,9.3,2.2c3.3,0.8,5.6,1.5,6.9,2.2c1.3,0.7,2.3,1.6,2.9,2.8c0.6,1.2,0.9,2.6,0.9,4.2c0,2-0.4,3.7-1.3,5.3
		c-0.9,1.5-2.3,2.7-4.2,3.6s-4.2,1.3-6.7,1.3c-2.9,0-5.5-0.6-7.9-1.8c-2.4-1.2-4.1-2.7-5.1-4.3c-0.3-2.8-0.5-5.2-0.4-7h-3.3
		c0,6.1-0.4,10.6-1.3,13.6c3,1.5,5.8,2.5,8.3,3.1s5.4,0.9,8.6,0.9c4.4,0,8.2-0.6,11.3-1.9c2-0.8,3.9-2,5.7-3.5
		c1.9-1.6,3.3-3.3,4.4-5.2c1.4-2.5,2.1-5.5,2.1-8.8c0-1.9-0.2-3.6-0.7-5.2c-0.5-1.5-1.1-2.8-1.9-3.8c-0.8-1-1.8-1.9-3.1-2.7
		c-1.3-0.8-3-1.4-5.1-2c-0.8-0.2-2.6-0.5-5.3-1s-4.8-0.9-6.3-1.2c-2-0.5-3.5-1.1-4.5-1.7s-1.8-1.5-2.3-2.6s-0.8-2.5-0.9-4.2
		c0-2.4,1-4.5,2.9-6.3c2-1.8,4.7-2.7,8.3-2.7c2.5,0,4.7,0.4,6.7,1.3s3.4,1.9,4.2,3.1c0.2,1.3,0.3,3.4,0.4,6.4h3.3
		C859.9,268.6,860.1,266.4,860.2,264.8L860.2,264.8L860.2,264.8z M895.1,257.2c-4.3,0-8-0.1-11.3-0.3v3.5c2.8,0.1,4.5,0.2,4.9,0.3
		c0.5,0.1,0.8,0.3,0.9,0.5c0.2,0.2,0.3,0.4,0.4,0.8c0.2,0.8,0.3,2.9,0.5,6.2c0.1,1.5,0.1,4.8,0.1,10v16.4c0,2.7-0.1,5.6-0.3,8.7
		c-0.1,2.1-0.2,3.4-0.3,3.7c-0.1,0.2-0.2,0.4-0.4,0.6s-0.6,0.3-1.1,0.4c-0.4,0.1-2,0.2-4.7,0.3v3.5c3.3-0.2,7.1-0.3,11.3-0.3
		c4.8,0,9.4,0.1,13.7,0.3v-3.5c-2.6,0-4.2-0.1-4.7-0.3c-0.5-0.1-0.9-0.3-1.2-0.5c-0.2-0.2-0.4-0.5-0.5-0.8c-0.3-0.8-0.4-2.6-0.4-5.3
		l-0.1-7.2v-15.8c0-0.5,0.1-4,0.2-10.4c0-1.9,0.1-3.2,0.1-3.8c0.1-1.3,0.2-2.1,0.4-2.5c0.1-0.3,0.2-0.5,0.4-0.6
		c0.2-0.2,0.6-0.3,1.1-0.4s2.1-0.2,4.7-0.3v-3.5C904.4,257.1,899.9,257.2,895.1,257.2L895.1,257.2L895.1,257.2L895.1,257.2z
		 M949.6,311.5c3.5,0,7.8,0.1,12.8,0.3v-3.2c-3.2-0.1-5-0.3-5.6-0.6c-0.6-0.3-1-0.8-1.2-1.5c-0.3-1.1-0.4-4.5-0.4-10.2v-23.5
		c0-6.2,0-9.8,0.1-10.7h5.6c3,0,5.6,0.1,7.7,0.3c0.7,0,1.1,0.1,1.3,0.3c0.2,0.2,0.4,0.7,0.5,1.7c0.3,1.9,0.5,3.8,0.5,5.8h3.2
		c0.1-5.5,0.1-8.4,0.2-8.6c0-1.2,0.2-2.6,0.4-4.2l-0.4-0.4c-1.2,0.1-2.4,0.2-3.6,0.3c-2.2,0.1-6.6,0.1-13.2,0.1h-15.8
		c-6.4,0-10.7,0-13-0.1c-1.4,0-2.7-0.1-3.9-0.3l-0.3,0.4c0.2,1.3,0.3,2.6,0.4,3.7c0,0.7,0.1,3.7,0.2,9.1h3.2
		c0.1-2.3,0.3-4.3,0.6-6.2c0.1-0.8,0.3-1.2,0.5-1.4c0.1-0.1,0.6-0.2,1.5-0.3c2.1-0.2,4.6-0.3,7.5-0.3h5.6c0.1,0.8,0.1,4.3,0.1,10.7
		v23.5c0,5.6-0.1,9-0.4,10.2c-0.2,0.7-0.6,1.3-1.2,1.6c-0.6,0.3-2.5,0.5-5.6,0.6v3.2C941.6,311.6,945.9,311.5,949.6,311.5
		L949.6,311.5L949.6,311.5L949.6,311.5z M1013.8,272c-1.9-3.7-3.8-6.9-5.7-9.8c-1.3-1.9-2.3-3.2-3-3.9c-0.7-0.7-1.9-1.5-3.5-2.4
		c-1.5,0.4-2.9,0.7-4.4,1.1l-8.3,1.6v2.9c2,0,3.1,0.1,3.5,0.2c0.5,0.3,1.5,1.1,2.8,2.5c2,2.1,4.1,5,6.3,8.5
		c2.8,4.4,5.4,8.8,7.9,13.3c1,1.9,1.5,3.1,1.5,3.7v7.4c0,2.1-0.1,4.6-0.2,7.6c-0.1,1.3-0.2,2.1-0.4,2.3c-0.2,0.3-0.5,0.5-1.1,0.6
		c-0.5,0.1-2.2,0.2-5.2,0.4v3.5c4-0.2,8-0.3,11.9-0.3c4,0,8.5,0.1,13.5,0.3V308c-2.9,0-4.6-0.2-5.2-0.3c-0.6-0.2-0.9-0.4-1.2-0.7
		c-0.2-0.3-0.4-1.2-0.6-2.7c-0.2-1.5-0.3-3.9-0.3-7.3v-6.6c0-1.4,0.1-2.3,0.2-2.9c0.2-0.8,0.6-1.8,1.1-2.9c0.9-1.6,3.1-5.4,6.8-11.1
		c3.7-5.8,7.1-10.8,10.3-15v-1.8h-6.2c-0.4,0.8-1.3,2.4-2.7,4.9c-4.1,7.3-6.6,11.7-7.4,13.1l-4.9,8
		C1018.7,281.6,1016.9,277.9,1013.8,272L1013.8,272L1013.8,272L1013.8,272z"/>
	<polygon class="st1" points="261.7,431.1 261.7,377.5 311.1,377.5 311.1,342.2 261.7,342.2 261.7,292.1 315.9,292.1 315.9,311.5 
		351.7,311.5 351.7,257 208.4,257 208.4,292.1 221.9,292.1 221.9,431.1 208.5,431.1 208.5,466.5 274.6,466.5 274.6,431.1 	"/>
	<path class="st1" d="M189.8,387.3v-95.2H203v-35h-66.3v35h12.9v83.4c0,35-4,51.8-29.1,51.8s-29.1-16.8-29.1-51.8v-83.4h12.8v-35
		H37.9v35H51v95.2c0,20.8,0,37.8,9.8,53.2c11,17.3,30.9,28.4,59.7,28.4C171.6,468.8,189.8,442.2,189.8,387.3L189.8,387.3
		L189.8,387.3z"/>
</g>
<rect x="10.4" y="223.7" class="st2" width="1259.2" height="277.5"/>
</svg>
